HIERARCHY
ROOT Hips
{
	OFFSET 0.000000 71.427986 0.000000
	CHANNELS 6 Xposition Yposition Zposition Xrotation Yrotation Zrotation
	JOINT Pelvis
	{
		OFFSET 0.000000 0.000000 0.000000
		CHANNELS 3 Xrotation Yrotation Zrotation
		JOINT LeftUpLeg
		{
			OFFSET 6.797100 -2.508499 -1.318700
			CHANNELS 3 Xrotation Yrotation Zrotation
			JOINT LeftLeg
			{
				OFFSET 0.069008 -29.241863 0.690200
				CHANNELS 3 Xrotation Yrotation Zrotation
				JOINT LeftFoot
				{
					OFFSET -0.069008 -29.568123 -0.266800
					CHANNELS 3 Xrotation Yrotation Zrotation
					JOINT LeftToeBase
					{
						OFFSET 3.145500 -8.631000 16.059900
						CHANNELS 3 Xrotation Yrotation Zrotation
						End Site
						{
							OFFSET 0.000000 18.501587 0.000000
						}
					}
				}
			}
			JOINT Left_ShortSleeve
			{
				OFFSET 0.265923 -10.480953 1.153800
				CHANNELS 3 Xrotation Yrotation Zrotation
				End Site
				{
					OFFSET 1.725763 19.823879 0.000000
				}
			}
		}
		JOINT RightUpLeg
		{
			OFFSET -6.797100 -2.508499 -1.318700
			CHANNELS 3 Xrotation Yrotation Zrotation
			JOINT RightLeg
			{
				OFFSET -0.082453 -29.241932 0.688000
				CHANNELS 3 Xrotation Yrotation Zrotation
				JOINT RightFoot
				{
					OFFSET 0.082453 -29.568058 -0.264600
					CHANNELS 3 Xrotation Yrotation Zrotation
					JOINT RightToeBase
					{
						OFFSET -3.115300 -8.682800 16.113400
						CHANNELS 3 Xrotation Yrotation Zrotation
						End Site
						{
							OFFSET 0.000000 18.567114 0.000000
						}
					}
				}
			}
			JOINT Right_ShortSleeve
			{
				OFFSET -0.265923 -10.480953 1.153800
				CHANNELS 3 Xrotation Yrotation Zrotation
				End Site
				{
					OFFSET -1.725766 19.823910 0.000000
				}
			}
		}
	}
	JOINT Spine
	{
		OFFSET 0.000000 13.368103 0.470500
		CHANNELS 3 Xrotation Yrotation Zrotation
		JOINT Spine1
		{
			OFFSET 0.147000 13.837402 0.538800
			CHANNELS 3 Xrotation Yrotation Zrotation
			JOINT Spine2
			{
				OFFSET 0.168000 16.242897 -1.435500
				CHANNELS 3 Xrotation Yrotation Zrotation
				JOINT Neck
				{
					OFFSET 0.217200 18.631500 -1.679100
					CHANNELS 3 Xrotation Yrotation Zrotation
					JOINT Head
					{
						OFFSET 0.000000 6.599396 1.385900
						CHANNELS 3 Xrotation Yrotation Zrotation
						JOINT Hat
						{
							OFFSET -0.532200 27.220596 -10.096100
							CHANNELS 3 Xrotation Yrotation Zrotation
							End Site
							{
								OFFSET 0.000000 22.029861 0.000000
							}
						}
						JOINT HairD
						{
							OFFSET -10.777400 17.437393 -1.325900
							CHANNELS 3 Xrotation Yrotation Zrotation
							JOINT HairD1
							{
								OFFSET -3.290299 -11.051193 1.062200
								CHANNELS 3 Xrotation Yrotation Zrotation
								End Site
								{
									OFFSET 0.000000 11.579437 0.000000
								}
							}
						}
						JOINT HairB
						{
							OFFSET -10.777400 17.437393 1.467900
							CHANNELS 3 Xrotation Yrotation Zrotation
							JOINT HairB1
							{
								OFFSET -1.561200 -12.956299 3.590200
								CHANNELS 3 Xrotation Yrotation Zrotation
								End Site
								{
									OFFSET 0.000000 13.534866 0.000000
								}
							}
						}
						JOINT HairA
						{
							OFFSET 9.713100 17.437393 1.467900
							CHANNELS 3 Xrotation Yrotation Zrotation
							JOINT HairA1
							{
								OFFSET 1.561200 -12.956299 3.590200
								CHANNELS 3 Xrotation Yrotation Zrotation
								End Site
								{
									OFFSET 0.000000 13.534866 0.000000
								}
							}
						}
						JOINT HairC
						{
							OFFSET 9.713100 17.437393 -1.325900
							CHANNELS 3 Xrotation Yrotation Zrotation
							JOINT HairC1
							{
								OFFSET 3.290300 -11.051193 1.062200
								CHANNELS 3 Xrotation Yrotation Zrotation
								End Site
								{
									OFFSET 0.000000 11.579437 0.000000
								}
							}
						}
					}
				}
				JOINT LeftShoulder
				{
					OFFSET 5.101800 15.108002 -2.763700
					CHANNELS 3 Xrotation Yrotation Zrotation
					JOINT LeftArm
					{
						OFFSET 9.825497 2.506317 -1.597400
						CHANNELS 3 Xrotation Yrotation Zrotation
						JOINT LeftForeArm
						{
							OFFSET 21.966244 0.000000 0.000000
							CHANNELS 3 Xrotation Yrotation Zrotation
							JOINT LeftHand
							{
								OFFSET 33.879036 0.000000 0.000000
								CHANNELS 3 Xrotation Yrotation Zrotation
								JOINT LeftHandThumb1
								{
									OFFSET 6.715286 -2.359680 3.363841
									CHANNELS 3 Xrotation Yrotation Zrotation
									JOINT LeftHandThumb2
									{
										OFFSET 2.507072 -1.447464 1.447461
										CHANNELS 3 Xrotation Yrotation Zrotation
										JOINT LeftHandThumb3
										{
											OFFSET 2.898338 -1.673355 1.673357
											CHANNELS 3 Xrotation Yrotation Zrotation
											End Site
											{
												OFFSET -0.295959 3.727692 -0.131651
											}
										}
									}
								}
								JOINT LeftHandIndex1
								{
									OFFSET 14.190811 -0.254547 3.840278
									CHANNELS 3 Xrotation Yrotation Zrotation
									JOINT LeftHandIndex2
									{
										OFFSET 3.551727 0.000000 -0.000000
										CHANNELS 3 Xrotation Yrotation Zrotation
										JOINT LeftHandIndex3
										{
											OFFSET 2.894196 0.000000 0.000000
											CHANNELS 3 Xrotation Yrotation Zrotation
											End Site
											{
												OFFSET -1.000603 2.690872 0.366626
											}
										}
									}
								}
								JOINT LeftHandMiddle1
								{
									OFFSET 13.776489 0.000000 0.000000
									CHANNELS 3 Xrotation Yrotation Zrotation
									JOINT LeftHandMiddle2
									{
										OFFSET 3.438232 0.000000 0.000000
										CHANNELS 3 Xrotation Yrotation Zrotation
										JOINT LeftHandMiddle3
										{
											OFFSET 3.691551 0.000000 0.000000
											CHANNELS 3 Xrotation Yrotation Zrotation
											End Site
											{
												OFFSET -1.082298 3.499527 0.457670
											}
										}
									}
								}
								JOINT LeftHandRing1
								{
									OFFSET 13.966164 -0.268127 -3.067488
									CHANNELS 3 Xrotation Yrotation Zrotation
									JOINT LeftHandRing2
									{
										OFFSET 3.162567 0.000000 0.000000
										CHANNELS 3 Xrotation Yrotation Zrotation
										JOINT LeftHandRing3
										{
											OFFSET 3.324348 0.000000 0.000000
											CHANNELS 3 Xrotation Yrotation Zrotation
											End Site
											{
												OFFSET -0.861900 3.184998 0.405154
											}
										}
									}
								}
								JOINT LeftHandPinky1
								{
									OFFSET 13.131393 -0.168503 -5.746925
									CHANNELS 3 Xrotation Yrotation Zrotation
									JOINT LeftHandPinky2
									{
										OFFSET 2.849182 0.000000 0.000000
										CHANNELS 3 Xrotation Yrotation Zrotation
										JOINT LeftHandPinky3
										{
											OFFSET 2.805038 0.000000 0.000000
											CHANNELS 3 Xrotation Yrotation Zrotation
											End Site
											{
												OFFSET -0.882500 2.642609 0.325652
											}
										}
									}
								}
							}
							JOINT Left_Sleeve
							{
								OFFSET 6.592125 -0.646545 0.805568
								CHANNELS 3 Xrotation Yrotation Zrotation
								End Site
								{
									OFFSET -0.000179 20.275787 -0.000000
								}
							}
						}
					}
				}
				JOINT RightShoulder
				{
					OFFSET -5.731700 15.108002 -2.763700
					CHANNELS 3 Xrotation Yrotation Zrotation
					JOINT RightArm
					{
						OFFSET -9.825497 2.506317 -1.597400
						CHANNELS 3 Xrotation Yrotation Zrotation
						JOINT RightForeArm
						{
							OFFSET -21.966242 0.000000 0.000000
							CHANNELS 3 Xrotation Yrotation Zrotation
							JOINT RightHand
							{
								OFFSET -33.879032 0.000000 0.000000
								CHANNELS 3 Xrotation Yrotation Zrotation
								JOINT RightHandThumb1
								{
									OFFSET -6.715286 -2.359680 3.363841
									CHANNELS 3 Xrotation Yrotation Zrotation
									JOINT RightHandThumb2
									{
										OFFSET -2.507072 -1.447464 1.447461
										CHANNELS 3 Xrotation Yrotation Zrotation
										JOINT RightHandThumb3
										{
											OFFSET -2.898338 -1.673355 1.673357
											CHANNELS 3 Xrotation Yrotation Zrotation
											End Site
											{
												OFFSET 0.295959 3.727692 -0.131651
											}
										}
									}
								}
								JOINT RightHandIndex1
								{
									OFFSET -14.190811 -0.254547 3.840278
									CHANNELS 3 Xrotation Yrotation Zrotation
									JOINT RightHandIndex2
									{
										OFFSET -3.551727 0.000000 -0.000000
										CHANNELS 3 Xrotation Yrotation Zrotation
										JOINT RightHandIndex3
										{
											OFFSET -2.894196 0.000000 0.000000
											CHANNELS 3 Xrotation Yrotation Zrotation
											End Site
											{
												OFFSET 1.000603 2.690872 0.366626
											}
										}
									}
								}
								JOINT RightHandMiddle1
								{
									OFFSET -13.776489 0.000000 0.000000
									CHANNELS 3 Xrotation Yrotation Zrotation
									JOINT RightHandMiddle2
									{
										OFFSET -3.438232 0.000000 0.000000
										CHANNELS 3 Xrotation Yrotation Zrotation
										JOINT RightHandMiddle3
										{
											OFFSET -3.691551 0.000000 0.000000
											CHANNELS 3 Xrotation Yrotation Zrotation
											End Site
											{
												OFFSET 1.082298 3.499527 0.457670
											}
										}
									}
								}
								JOINT RightHandRing1
								{
									OFFSET -13.966164 -0.268127 -3.067488
									CHANNELS 3 Xrotation Yrotation Zrotation
									JOINT RightHandRing2
									{
										OFFSET -3.162567 0.000000 0.000000
										CHANNELS 3 Xrotation Yrotation Zrotation
										JOINT RightHandRing3
										{
											OFFSET -3.324348 0.000000 0.000000
											CHANNELS 3 Xrotation Yrotation Zrotation
											End Site
											{
												OFFSET 0.861900 3.184998 0.405154
											}
										}
									}
								}
								JOINT RightHandPinky1
								{
									OFFSET -13.131393 -0.168503 -5.746925
									CHANNELS 3 Xrotation Yrotation Zrotation
									JOINT RightHandPinky2
									{
										OFFSET -2.849182 0.000000 0.000000
										CHANNELS 3 Xrotation Yrotation Zrotation
										JOINT RightHandPinky3
										{
											OFFSET -2.805038 0.000000 0.000000
											CHANNELS 3 Xrotation Yrotation Zrotation
											End Site
											{
												OFFSET 0.882500 2.642609 0.325652
											}
										}
									}
								}
							}
							JOINT Right_Sleeve
							{
								OFFSET -6.592125 -0.646545 0.805568
								CHANNELS 3 Xrotation Yrotation Zrotation
								End Site
								{
									OFFSET 0.000179 20.275787 -0.000000
								}
							}
						}
					}
				}
				JOINT Bind_Right_JacketString
				{
					OFFSET -3.534800 11.969597 7.200700
					CHANNELS 3 Xrotation Yrotation Zrotation
					JOINT Bind_Right_JacketString1
					{
						OFFSET -0.319900 -6.102600 2.794100
						CHANNELS 3 Xrotation Yrotation Zrotation
						End Site
						{
							OFFSET 0.000000 6.719452 0.000000
						}
					}
				}
				JOINT Bind_Left_JacketString
				{
					OFFSET 2.904800 11.969597 7.200700
					CHANNELS 3 Xrotation Yrotation Zrotation
					JOINT Bind_Left_JacketString1
					{
						OFFSET 0.364800 -5.904503 3.186800
						CHANNELS 3 Xrotation Yrotation Zrotation
						End Site
						{
							OFFSET 0.000000 6.719513 0.000000
						}
					}
				}
				JOINT HairE
				{
					OFFSET 5.915200 17.612701 -11.592200
					CHANNELS 3 Xrotation Yrotation Zrotation
					JOINT HairE1
					{
						OFFSET 0.289200 -7.171898 -1.284500
						CHANNELS 3 Xrotation Yrotation Zrotation
						End Site
						{
							OFFSET 0.000000 7.291756 0.000000
						}
					}
				}
				JOINT HairF
				{
					OFFSET -0.864800 17.612701 -11.592200
					CHANNELS 3 Xrotation Yrotation Zrotation
					JOINT HairF1
					{
						OFFSET 0.000000 -14.087097 -2.127501
						CHANNELS 3 Xrotation Yrotation Zrotation
						End Site
						{
							OFFSET 0.000000 14.246841 0.000000
						}
					}
				}
				JOINT HairG
				{
					OFFSET -8.087700 17.612701 -11.592200
					CHANNELS 3 Xrotation Yrotation Zrotation
					JOINT HairG1
					{
						OFFSET -0.293600 -6.081398 -0.910100
						CHANNELS 3 Xrotation Yrotation Zrotation
						End Site
						{
							OFFSET 0.000000 6.156120 0.000000
						}
					}
				}
			}
		}
	}
	JOINT Pouch
	{
		OFFSET 0.000000 4.394501 10.847300
		CHANNELS 3 Xrotation Yrotation Zrotation
		End Site
		{
			OFFSET 0.000000 21.880577 0.000000
		}
	}
	JOINT Bag
	{
		OFFSET -13.229000 4.813004 -0.593300
		CHANNELS 3 Xrotation Yrotation Zrotation
		End Site
		{
			OFFSET 0.000000 21.880577 0.000000
		}
	}
	JOINT OccupyGuyFacialAnim_Joint
	{
		OFFSET 1.000000 -70.206398 -1.655000
		CHANNELS 3 Xrotation Yrotation Zrotation
		End Site
		{
			OFFSET 0.000000 21.880577 0.000000
		}
	}
}
MOTION
Frames: 4
Frame Time: 0.033333
0.812366 41.901688 0.391276 -0.562970 4.252445 -9.217821 -0.000000 0.000000 0.000000 -77.202236 -10.323951 14.421369 115.615910 8.789562 3.341767 -35.728470 4.570094 -11.780339 -0.000000 -0.000000 0.000000 0.000000 0.000000 -0.000001 -59.259821 8.717708 -24.016224 106.766416 -0.110251 -0.758219 -31.552680 -8.888216 25.776053 0.000000 0.000001 0.000000 -0.000001 0.000001 -0.000002 4.028485 3.661164 -1.920374 8.251216 6.772764 -4.728794 8.251223 6.772761 -4.728800 -1.987027 28.311201 6.773739 5.084088 36.051869 -22.849344 -0.000001 0.000000 0.000000 -0.000001 0.000000 0.000000 -0.000001 0.000000 0.000000 -0.000001 0.000000 0.000000 0.000001 0.000000 0.000000 -0.000001 0.000000 0.000000 0.000001 0.000000 0.000000 -0.000001 0.000000 0.000000 -0.000001 0.000000 0.000000 1.033491 -15.235078 -11.647781 3.042449 -0.761191 -32.016344 40.133573 -33.388219 -1.908170 12.866381 10.638216 2.322224 -9.430059 -10.455571 8.418362 2.321170 6.714657 2.170923 0.000000 -0.000001 0.000000 -1.240316 -9.026448 -4.969593 -0.126835 0.207654 -21.714471 0.000003 0.000002 -0.000002 1.299843 -1.018926 -8.079515 -0.178454 -0.773441 -14.430206 0.000001 -0.000000 0.000002 -0.369346 2.945986 -4.498419 -0.505469 -2.597485 -30.199617 -0.000001 -0.000001 0.000002 0.026892 5.964703 0.716865 -0.699224 -5.770473 -39.699409 -0.000001 0.000001 -0.000001 0.000002 0.000000 0.000000 3.185203 -18.297144 12.806530 12.807464 -13.875020 59.330500 29.940797 40.956912 -3.738830 19.089467 -1.945249 12.311450 -7.843454 4.773259 -9.669415 -0.642340 -0.093951 -1.289301 -0.000001 0.000000 -0.000000 -1.233773 0.596173 8.695336 0.120548 -1.119599 16.859909 0.000001 0.000004 -0.000001 -1.142478 -1.773303 0.545495 -0.357887 1.142298 22.116122 0.000006 0.000001 -0.000002 1.911491 -0.142529 -2.803052 -0.619912 3.110136 28.344862 0.000003 -0.000004 0.000000 4.769174 -2.272347 -7.778798 -1.320397 7.677310 37.620313 0.000005 0.000001 -0.000003 -0.000002 0.000001 0.000001 -0.000000 0.000000 -0.000002 -0.000000 -0.000003 -0.000001 -0.000000 0.000000 -0.000002 -0.000000 0.000000 -0.000002 -0.000000 0.000000 -0.000002 -0.000000 -0.000003 -0.000001 -0.000000 0.000000 -0.000002 -0.000000 0.000000 -0.000002 -0.000000 0.000000 -0.000002 -0.000000 -0.000003 -0.000001 -0.000000 0.000000 0.000000 -0.000000 0.000000 0.000000 -0.000000 0.000000 0.000000 
0.865965 41.738213 0.329202 -0.005076 4.656580 -9.299167 0.000000 0.000000 -0.000000 -78.441198 -9.752568 13.923090 115.771379 9.149149 3.919972 -35.564915 4.341739 -11.611849 -0.000000 -0.000000 0.000000 0.000001 0.000000 0.000001 -59.719909 8.870643 -23.813494 106.988992 -0.936090 -1.025488 -31.427712 -9.003506 26.662695 -0.000000 0.000001 0.000000 -0.000001 -0.000003 0.000001 4.014451 3.603393 -1.952418 8.219685 6.641342 -4.774434 8.219690 6.641350 -4.774438 -3.325650 29.199940 4.947397 5.435043 35.821026 -21.458293 -0.000001 -0.000000 -0.000000 -0.000001 -0.000000 -0.000000 -0.000001 -0.000000 -0.000000 -0.000001 -0.000000 -0.000000 0.000001 -0.000000 -0.000000 -0.000001 -0.000000 -0.000000 0.000001 -0.000000 -0.000000 -0.000001 -0.000000 -0.000000 -0.000001 -0.000000 -0.000000 1.007017 -13.628967 -12.514478 2.643590 -0.688342 -31.514493 39.422520 -33.625636 -1.798813 12.781821 10.402650 1.551713 -9.717834 -10.979442 8.419074 2.275016 6.433661 2.075862 0.000002 0.000001 -0.000001 -1.267950 -8.988238 -5.659682 -0.107414 0.238990 -21.417009 -0.000000 0.000001 -0.000000 1.283856 -1.121273 -8.008853 -0.179429 -0.794531 -14.626531 -0.000002 0.000000 0.000001 -0.472085 2.842480 -6.074162 -0.504198 -2.591745 -30.109957 -0.000000 -0.000000 0.000003 0.055122 6.096962 0.749718 -0.695297 -5.772038 -39.702032 -0.000002 -0.000001 0.000001 -0.000001 0.000000 0.000000 3.024371 -16.914455 12.590686 13.285458 -13.938108 58.790799 30.318728 41.530224 -3.321478 18.444938 -2.592058 12.599291 -8.354366 5.428062 -10.023365 -0.748217 -0.193260 -1.259742 0.000000 -0.000001 -0.000003 -1.407058 0.822381 9.118544 0.096996 -1.084340 17.245461 -0.000003 -0.000000 0.000002 -1.112410 -1.562930 1.612487 -0.350356 1.120642 21.858733 0.000004 -0.000002 0.000001 1.822026 -0.439453 -3.065835 -0.621694 3.117081 28.424310 0.000002 -0.000001 -0.000002 4.681080 -2.490085 -7.884278 -1.322917 7.684426 37.723432 -0.000002 0.000000 0.000002 0.000005 0.000000 -0.000001 -0.000001 -0.000000 -0.000000 -0.000000 -0.000000 -0.000001 -0.000001 -0.000000 -0.000000 -0.000001 -0.000000 -0.000000 -0.000001 -0.000000 -0.000000 -0.000000 -0.000000 -0.000000 -0.000001 -0.000000 -0.000000 -0.000001 -0.000000 -0.000000 -0.000001 -0.000000 -0.000000 -0.000000 -0.000000 -0.000000 0.000000 0.000000 -0.000000 0.000000 0.000000 -0.000000 0.000000 0.000000 -0.000000 
0.909775 41.554092 0.216295 0.535692 4.875326 -9.407637 -0.000000 0.000001 -0.000001 -79.710323 -9.176865 13.349775 115.903761 9.830443 4.631505 -35.292216 4.170995 -11.692525 -0.000000 0.000002 0.000000 0.000001 -0.000000 0.000000 -60.387629 9.060195 -23.667422 107.234988 -1.443764 -1.182454 -31.230832 -9.054362 27.253146 0.000000 0.000000 0.000000 -0.000001 0.000000 -0.000001 4.037134 3.510914 -1.930632 8.256672 6.443021 -4.712584 8.256669 6.443021 -4.712579 -4.959512 30.031847 3.398887 5.886835 35.515942 -20.009580 -0.000000 0.000000 -0.000000 -0.000000 0.000000 -0.000000 -0.000000 0.000000 -0.000000 -0.000000 0.000000 -0.000000 -0.000000 0.000000 -0.000000 -0.000000 0.000000 -0.000000 -0.000000 0.000000 -0.000000 -0.000000 0.000000 -0.000000 -0.000000 0.000000 -0.000000 1.029749 -12.026490 -13.508431 2.381566 -0.331399 -30.879955 38.661521 -34.371274 -1.550914 12.710399 10.486543 0.802853 -9.980713 -11.201701 8.550871 2.340989 6.451747 1.842041 -0.000002 -0.000000 0.000002 -1.816439 -8.645060 -7.600478 -0.081831 0.276449 -21.056203 0.000002 0.000000 -0.000002 1.141558 -1.648004 -8.865119 -0.180410 -0.815691 -14.822578 0.000004 0.000001 -0.000001 -0.581043 2.756289 -7.707097 -0.502457 -2.591425 -30.109438 0.000000 0.000001 0.000000 0.086797 6.268885 0.640634 -0.692236 -5.772783 -39.684461 0.000001 -0.000001 -0.000001 0.000004 0.000000 -0.000000 2.725653 -15.683649 11.975954 13.583406 -13.634292 58.213292 30.599565 42.019177 -2.889451 17.693313 -3.079746 12.851493 -8.748794 6.594973 -10.046200 -1.079601 -0.580244 -1.260053 0.000002 0.000000 0.000003 -1.680140 1.120544 10.374957 0.063884 -1.040374 17.743629 -0.000001 0.000003 -0.000001 -1.109561 -1.209500 3.311714 -0.339043 1.096010 21.559219 -0.000000 -0.000001 -0.000001 1.690072 -0.623622 -2.567571 -0.623579 3.121644 28.486743 0.000003 -0.000003 0.000001 4.645317 -2.592057 -7.652325 -1.324084 7.700820 37.934850 -0.000004 0.000000 -0.000001 0.000000 -0.000000 0.000001 -0.000001 0.000001 -0.000001 -0.000000 0.000000 -0.000002 -0.000001 0.000001 -0.000001 -0.000001 0.000001 -0.000001 -0.000001 0.000001 -0.000001 -0.000000 0.000000 -0.000001 -0.000001 0.000001 -0.000001 -0.000001 0.000001 -0.000001 -0.000001 0.000001 -0.000001 -0.000000 0.000000 -0.000001 -0.000000 0.000001 -0.000001 -0.000000 0.000001 -0.000001 -0.000000 0.000001 -0.000001 
0.922986 41.365234 0.060702 1.077837 5.008574 -9.600831 0.000000 0.000000 -0.000000 -81.026268 -8.667890 12.710049 115.965547 10.780976 5.478621 -34.888265 3.988562 -11.997815 -0.000000 -0.000002 0.000000 0.000000 0.000000 0.000001 -61.222653 9.137478 -23.643777 107.496290 -1.609203 -1.204711 -31.017819 -9.043694 27.482564 0.000000 -0.000001 -0.000000 0.000003 -0.000002 -0.000000 4.056187 3.337858 -1.832549 8.278077 6.086810 -4.497244 8.278084 6.086810 -4.497248 -6.871032 30.186352 2.755638 6.597412 34.592962 -18.589680 0.000001 0.000000 0.000000 0.000001 0.000000 0.000000 0.000001 0.000000 0.000000 0.000001 0.000000 0.000000 -0.000001 0.000000 -0.000000 0.000001 0.000000 0.000000 -0.000001 0.000000 -0.000000 0.000001 0.000000 0.000000 0.000001 0.000000 0.000000 1.153167 -10.341660 -13.955698 2.527348 0.432835 -30.882246 37.933931 -35.632369 -1.155051 12.721796 10.805664 0.070277 -9.838386 -10.793530 8.840319 2.152308 6.416251 1.775351 0.000003 -0.000001 -0.000002 -2.806057 -7.995220 -10.711662 -0.075131 0.294332 -20.893084 0.000001 0.000000 -0.000002 0.851914 -2.262285 -10.710105 -0.181425 -0.836793 -15.018923 -0.000000 0.000000 0.000002 -0.674849 2.600479 -9.182079 -0.499420 -2.606855 -30.368537 -0.000001 0.000004 -0.000002 0.118748 6.194596 0.184861 -0.691023 -5.771764 -39.625879 0.000002 0.000000 -0.000001 0.000003 0.000000 -0.000000 2.169218 -14.574970 10.578644 13.907450 -13.079131 57.822476 30.738365 42.528525 -2.526036 16.835224 -3.482162 13.060164 -9.231264 7.717434 -10.117912 -1.274484 -1.093101 -1.154839 -0.000002 -0.000002 -0.000002 -1.962950 1.416077 11.677621 0.022069 -0.988844 18.341841 -0.000000 0.000000 0.000000 -1.112028 -0.851176 5.004138 -0.326197 1.070001 21.240761 -0.000000 -0.000001 -0.000001 1.534480 -0.658950 -1.201607 -0.627214 3.154935 28.904981 0.000001 -0.000002 -0.000003 4.611196 -2.575270 -6.687422 -1.325721 7.714446 38.114303 0.000005 0.000001 -0.000003 -0.000001 0.000001 0.000001 0.000001 0.000000 0.000001 -0.000000 -0.000001 0.000000 0.000001 0.000000 0.000001 0.000001 0.000000 0.000001 0.000001 0.000000 0.000001 -0.000000 -0.000001 0.000000 0.000001 0.000000 0.000001 0.000001 0.000000 0.000001 0.000001 0.000000 0.000001 -0.000000 -0.000001 0.000000 0.000000 0.000000 -0.000000 0.000000 0.000000 -0.000000 0.000000 0.000000 -0.000000 
